<svg xmlns="http://www.w3.org/2000/svg" width="24" height="24"><path fill="#F0F5F9" fill-rule="evenodd" d="M12 0C5.372 0 0 5.394 0 12.048c0 5.322 3.438 9.838 8.207 11.431.6.11.82-.261.82-.58 0-.286-.011-1.044-.017-2.05-3.339.729-4.043-1.614-4.043-1.614-.545-1.392-1.332-1.762-1.332-1.762-1.09-.748.083-.733.083-.733 1.203.085 1.837 1.242 1.837 1.242 1.071 1.84 2.809 1.31 3.493 1 .109-.778.42-1.309.762-1.61-2.665-.304-5.466-1.337-5.466-5.954 0-1.315.467-2.39 1.235-3.233-.123-.305-.535-1.53.117-3.188 0 0 1.008-.324 3.3 1.235.958-.268 1.984-.401 3.005-.406a11.49 11.49 0 0 1 3.004.406c2.29-1.559 3.297-1.235 3.297-1.235.654 1.659.242 2.883.119 3.188.77.842 1.233 1.918 1.233 3.233 0 4.628-2.805 5.647-5.478 5.945.43.372.814 1.107.814 2.23 0 1.611-.015 2.91-.015 3.306 0 .322.216.697.825.579a12.047 12.047 0 0 0 8.2-11.43C24 5.394 18.627 0 12 0"/></svg>