<svg xmlns="http://www.w3.org/2000/svg" width="24" height="24"><path fill="#F0F5F9" fill-rule="evenodd" d="M24 4.368a9.617 9.617 0 0 1-2.827.794 5.038 5.038 0 0 0 2.165-2.792 9.698 9.698 0 0 1-3.129 1.223A4.856 4.856 0 0 0 16.616 2c-2.718 0-4.922 2.26-4.922 5.049 0 .396.042.78.126 1.15-4.092-.211-7.72-2.22-10.15-5.277a5.14 5.14 0 0 0-.666 2.54c0 1.751.87 3.297 2.19 4.203a4.834 4.834 0 0 1-2.23-.63v.062c0 2.447 1.697 4.488 3.951 4.95a4.695 4.695 0 0 1-1.297.178c-.317 0-.627-.03-.927-.09.626 2.006 2.444 3.466 4.599 3.505A9.722 9.722 0 0 1 0 19.733 13.71 13.71 0 0 0 7.548 22c9.058 0 14.01-7.692 14.01-14.365 0-.22-.005-.439-.013-.654.962-.712 1.797-1.6 2.455-2.613"/></svg>